<mxfile host="app.diagrams.net" modified="2023-10-30T15:49:02.915Z" agent="Mozilla/5.0 (Windows NT 10.0; Win64; x64; rv:109.0) Gecko/20100101 Firefox/119.0" etag="gdL45U2xkzMYw4FRTOwW" version="22.0.8" type="github">
  <diagram name="Página-1" id="tvlRUHr3YU1T_PC4-LcM">
    <mxGraphModel dx="2074" dy="774" grid="1" gridSize="10" guides="1" tooltips="1" connect="1" arrows="1" fold="1" page="1" pageScale="1" pageWidth="827" pageHeight="1169" math="0" shadow="0">
      <root>
        <mxCell id="0" />
        <mxCell id="1" parent="0" />
        <mxCell id="iYVBo_C0pQIE1ahdV7An-11" style="edgeStyle=orthogonalEdgeStyle;orthogonalLoop=1;jettySize=auto;html=1;entryX=0;entryY=0.5;entryDx=0;entryDy=0;curved=1;" parent="1" source="iYVBo_C0pQIE1ahdV7An-1" target="iYVBo_C0pQIE1ahdV7An-9" edge="1">
          <mxGeometry relative="1" as="geometry" />
        </mxCell>
        <mxCell id="iYVBo_C0pQIE1ahdV7An-13" style="edgeStyle=orthogonalEdgeStyle;orthogonalLoop=1;jettySize=auto;html=1;entryX=0;entryY=0.5;entryDx=0;entryDy=0;curved=1;strokeColor=default;" parent="1" source="iYVBo_C0pQIE1ahdV7An-1" target="iYVBo_C0pQIE1ahdV7An-8" edge="1">
          <mxGeometry relative="1" as="geometry" />
        </mxCell>
        <mxCell id="iYVBo_C0pQIE1ahdV7An-1" value="User/Admin" style="verticalLabelPosition=bottom;sketch=0;html=1;fillColor=#A153A0;verticalAlign=top;align=center;pointerEvents=1;shape=mxgraph.cisco_safe.design.actor_2;" parent="1" vertex="1">
          <mxGeometry x="130" y="130" width="19" height="50" as="geometry" />
        </mxCell>
        <mxCell id="iYVBo_C0pQIE1ahdV7An-12" style="edgeStyle=orthogonalEdgeStyle;orthogonalLoop=1;jettySize=auto;html=1;entryX=0;entryY=0.5;entryDx=0;entryDy=0;curved=1;" parent="1" source="iYVBo_C0pQIE1ahdV7An-2" target="iYVBo_C0pQIE1ahdV7An-10" edge="1">
          <mxGeometry relative="1" as="geometry" />
        </mxCell>
        <mxCell id="iYVBo_C0pQIE1ahdV7An-14" style="edgeStyle=orthogonalEdgeStyle;orthogonalLoop=1;jettySize=auto;html=1;entryX=0;entryY=0.5;entryDx=0;entryDy=0;curved=1;" parent="1" source="iYVBo_C0pQIE1ahdV7An-2" target="iYVBo_C0pQIE1ahdV7An-7" edge="1">
          <mxGeometry relative="1" as="geometry" />
        </mxCell>
        <mxCell id="iYVBo_C0pQIE1ahdV7An-24" style="edgeStyle=orthogonalEdgeStyle;orthogonalLoop=1;jettySize=auto;html=1;entryX=0;entryY=0.5;entryDx=0;entryDy=0;curved=1;" parent="1" source="iYVBo_C0pQIE1ahdV7An-2" target="iYVBo_C0pQIE1ahdV7An-6" edge="1">
          <mxGeometry relative="1" as="geometry" />
        </mxCell>
        <mxCell id="iYVBo_C0pQIE1ahdV7An-26" style="edgeStyle=orthogonalEdgeStyle;orthogonalLoop=1;jettySize=auto;html=1;entryX=0;entryY=0.5;entryDx=0;entryDy=0;curved=1;" parent="1" source="iYVBo_C0pQIE1ahdV7An-2" target="iYVBo_C0pQIE1ahdV7An-25" edge="1">
          <mxGeometry relative="1" as="geometry" />
        </mxCell>
        <mxCell id="iYVBo_C0pQIE1ahdV7An-2" value="Admin" style="verticalLabelPosition=bottom;sketch=0;html=1;fillColor=#A153A0;verticalAlign=top;align=center;pointerEvents=1;shape=mxgraph.cisco_safe.design.actor_2;" parent="1" vertex="1">
          <mxGeometry x="130" y="330" width="19" height="50" as="geometry" />
        </mxCell>
        <mxCell id="iYVBo_C0pQIE1ahdV7An-27" style="edgeStyle=orthogonalEdgeStyle;orthogonalLoop=1;jettySize=auto;html=1;entryX=0.5;entryY=1;entryDx=0;entryDy=0;curved=1;endArrow=block;endFill=0;" parent="1" source="iYVBo_C0pQIE1ahdV7An-4" target="iYVBo_C0pQIE1ahdV7An-25" edge="1">
          <mxGeometry relative="1" as="geometry" />
        </mxCell>
        <mxCell id="iYVBo_C0pQIE1ahdV7An-4" value="&lt;font style=&quot;font-size: 11px;&quot;&gt;&lt;strong&gt;Integration PokéAPI&lt;/strong&gt;&lt;/font&gt;" style="ellipse;whiteSpace=wrap;html=1;fillColor=#e1d5e7;strokeColor=#9673a6;" parent="1" vertex="1">
          <mxGeometry x="310" y="610" width="140" height="70" as="geometry" />
        </mxCell>
        <mxCell id="iYVBo_C0pQIE1ahdV7An-5" value="&lt;font style=&quot;font-size: 11px;&quot;&gt;&lt;strong&gt;User Activity Logging&lt;/strong&gt;&lt;/font&gt;" style="ellipse;whiteSpace=wrap;html=1;fillColor=#e1d5e7;strokeColor=#9673a6;" parent="1" vertex="1">
          <mxGeometry x="590" y="240" width="140" height="70" as="geometry" />
        </mxCell>
        <mxCell id="iYVBo_C0pQIE1ahdV7An-18" style="edgeStyle=orthogonalEdgeStyle;orthogonalLoop=1;jettySize=auto;html=1;entryX=0;entryY=0.5;entryDx=0;entryDy=0;curved=1;endArrow=block;endFill=0;" parent="1" source="iYVBo_C0pQIE1ahdV7An-6" target="iYVBo_C0pQIE1ahdV7An-5" edge="1">
          <mxGeometry relative="1" as="geometry" />
        </mxCell>
        <mxCell id="iYVBo_C0pQIE1ahdV7An-6" value="&lt;font style=&quot;font-size: 11px;&quot;&gt;&lt;strong&gt;Maintain Trainer&lt;br&gt;&lt;/strong&gt;&lt;/font&gt;" style="ellipse;whiteSpace=wrap;html=1;fillColor=#e1d5e7;strokeColor=#9673a6;" parent="1" vertex="1">
          <mxGeometry x="310" y="400" width="140" height="70" as="geometry" />
        </mxCell>
        <mxCell id="iYVBo_C0pQIE1ahdV7An-7" value="&lt;font style=&quot;font-size: 11px;&quot;&gt;&lt;strong&gt;Authenticate&lt;br&gt;&lt;/strong&gt;&lt;/font&gt;" style="ellipse;whiteSpace=wrap;html=1;fillColor=#e1d5e7;strokeColor=#9673a6;" parent="1" vertex="1">
          <mxGeometry x="310" y="240" width="140" height="70" as="geometry" />
        </mxCell>
        <mxCell id="iYVBo_C0pQIE1ahdV7An-17" style="edgeStyle=orthogonalEdgeStyle;orthogonalLoop=1;jettySize=auto;html=1;curved=1;entryX=0;entryY=0.5;entryDx=0;entryDy=0;endArrow=block;endFill=0;" parent="1" source="iYVBo_C0pQIE1ahdV7An-8" target="iYVBo_C0pQIE1ahdV7An-5" edge="1">
          <mxGeometry relative="1" as="geometry" />
        </mxCell>
        <mxCell id="iYVBo_C0pQIE1ahdV7An-8" value="&lt;font style=&quot;font-size: 11px;&quot;&gt;&lt;strong&gt;View Trainer Details&lt;/strong&gt;&lt;/font&gt;" style="ellipse;whiteSpace=wrap;html=1;fillColor=#e1d5e7;strokeColor=#9673a6;" parent="1" vertex="1">
          <mxGeometry x="310" y="160" width="140" height="70" as="geometry" />
        </mxCell>
        <mxCell id="iYVBo_C0pQIE1ahdV7An-9" value="&lt;font size=&quot;1&quot;&gt;&lt;strong style=&quot;font-size: 11px;&quot;&gt;Explore List of Trainers&lt;/strong&gt;&lt;/font&gt;" style="ellipse;whiteSpace=wrap;html=1;fillColor=#e1d5e7;strokeColor=#9673a6;" parent="1" vertex="1">
          <mxGeometry x="310" y="80" width="140" height="70" as="geometry" />
        </mxCell>
        <mxCell id="iYVBo_C0pQIE1ahdV7An-19" style="edgeStyle=orthogonalEdgeStyle;orthogonalLoop=1;jettySize=auto;html=1;entryX=0.014;entryY=0.643;entryDx=0;entryDy=0;entryPerimeter=0;curved=1;endArrow=block;endFill=0;" parent="1" source="iYVBo_C0pQIE1ahdV7An-10" target="iYVBo_C0pQIE1ahdV7An-5" edge="1">
          <mxGeometry relative="1" as="geometry">
            <mxPoint x="610" y="300" as="targetPoint" />
          </mxGeometry>
        </mxCell>
        <mxCell id="iYVBo_C0pQIE1ahdV7An-10" value="&lt;font style=&quot;font-size: 11px;&quot;&gt;&lt;strong&gt;Create Pokemon Trainer &lt;br&gt;&lt;/strong&gt;&lt;/font&gt;" style="ellipse;whiteSpace=wrap;html=1;fillColor=#e1d5e7;strokeColor=#9673a6;" parent="1" vertex="1">
          <mxGeometry x="310" y="320" width="140" height="70" as="geometry" />
        </mxCell>
        <mxCell id="iYVBo_C0pQIE1ahdV7An-16" style="edgeStyle=orthogonalEdgeStyle;orthogonalLoop=1;jettySize=auto;html=1;curved=1;entryX=-0.014;entryY=0.4;entryDx=0;entryDy=0;entryPerimeter=0;endArrow=block;endFill=0;" parent="1" source="iYVBo_C0pQIE1ahdV7An-9" target="iYVBo_C0pQIE1ahdV7An-5" edge="1">
          <mxGeometry relative="1" as="geometry">
            <mxPoint x="600" y="260" as="targetPoint" />
          </mxGeometry>
        </mxCell>
        <mxCell id="iYVBo_C0pQIE1ahdV7An-22" style="edgeStyle=orthogonalEdgeStyle;orthogonalLoop=1;jettySize=auto;html=1;curved=1;" parent="1" source="iYVBo_C0pQIE1ahdV7An-21" target="iYVBo_C0pQIE1ahdV7An-4" edge="1">
          <mxGeometry relative="1" as="geometry" />
        </mxCell>
        <mxCell id="iYVBo_C0pQIE1ahdV7An-21" value="Batch" style="verticalLabelPosition=bottom;sketch=0;html=1;fillColor=#A153A0;verticalAlign=top;align=center;pointerEvents=1;shape=mxgraph.cisco_safe.design.actor_2;" parent="1" vertex="1">
          <mxGeometry x="130" y="620" width="19" height="50" as="geometry" />
        </mxCell>
        <mxCell id="iYVBo_C0pQIE1ahdV7An-25" value="&lt;font size=&quot;1&quot;&gt;&lt;strong style=&quot;font-size: 11px;&quot;&gt;Explore List of Pokémon&lt;/strong&gt;&lt;/font&gt;" style="ellipse;whiteSpace=wrap;html=1;fillColor=#e1d5e7;strokeColor=#9673a6;" parent="1" vertex="1">
          <mxGeometry x="310" y="480" width="140" height="70" as="geometry" />
        </mxCell>
      </root>
    </mxGraphModel>
  </diagram>
</mxfile>
